<?xml version="1.0" encoding="iso-8859-1"?>
<!-- Generator: Adobe Illustrator 16.0.0, SVG Export Plug-In . SVG Version: 6.00 Build 0)  -->
<!DOCTYPE svg PUBLIC "-//W3C//DTD SVG 1.1//EN" "http://www.w3.org/Graphics/SVG/1.1/DTD/svg11.dtd">
<svg version="1.1" id="Capa_1" xmlns="http://www.w3.org/2000/svg" xmlns:xlink="http://www.w3.org/1999/xlink" x="0px" y="0px"
	 width="31.641px" height="31.64px" viewBox="0 0 31.641 31.64" style="enable-background:new 0 0 31.641 31.64;"
	 xml:space="preserve">
<g>
	<g>
		<ellipse cx="13.828" cy="7.241" rx="5.559" ry="5.447"/>
		<path d="M29.068,3.646c-1.471-0.064-2.721,1.096-2.775,2.573c-0.135,3.576-0.973,6.051-2.424,7.158
			c-0.37,0.283-0.762,0.45-1.134,0.555c-0.985-0.821-2.24-1.26-3.112-1.26h-5.794H8.035c-2.144,0-3.883,2.254-3.883,4.621v7.204
			h19.146v-4.634c0.141-0.219,0.27-0.436,0.375-0.645c1.053-0.229,2.209-0.68,3.32-1.502c2.876-2.121,4.438-5.923,4.645-11.299
			C31.695,4.943,30.544,3.702,29.068,3.646z"/>
		<rect y="26.679" width="31.04" height="3.167"/>
	</g>
</g>
<g>
</g>
<g>
</g>
<g>
</g>
<g>
</g>
<g>
</g>
<g>
</g>
<g>
</g>
<g>
</g>
<g>
</g>
<g>
</g>
<g>
</g>
<g>
</g>
<g>
</g>
<g>
</g>
<g>
</g>
</svg>
