<?xml version="1.0" encoding="iso-8859-1"?>
<!-- Generator: Adobe Illustrator 18.1.1, SVG Export Plug-In . SVG Version: 6.00 Build 0)  -->
<svg version="1.1" id="Capa_1" xmlns="http://www.w3.org/2000/svg" xmlns:xlink="http://www.w3.org/1999/xlink" x="0px" y="0px"
	 viewBox="0 0 612 612" style="enable-background:new 0 0 612 612; fill:#cccccc;" xml:space="preserve">
<g>
	<path d="M590.253,398.519l-46.635-46.635l47.511-47.511c5.583-5.581,5.585-14.631,0-20.213L311.156,4.187
		c-5.583-5.583-14.635-5.583-20.211,0l-123.314,123.31c-5.585,5.585-5.585,14.631,0,20.216l279.976,279.971
		c5.581,5.586,14.63,5.586,20.211,0l38.401-38.402l27.937,27.937l-78.505,78.505l-162.69-162.686
		c-4.959-4.959-11.686-7.746-18.7-7.746s-13.74,2.788-18.699,7.747l-33.679,33.679c-14.017-13.677-36.467-13.591-50.363,0.301
		L24.494,514.046c-13.996,13.999-13.992,36.704,0.004,50.7L61.252,601.5c13.999,13.996,36.704,14.003,50.703,0.004l147.02-147.027
		c13.898-13.894,13.976-36.341,0.305-50.362l14.982-14.982l162.69,162.685c5.163,5.163,11.933,7.746,18.7,7.746
		c6.767,0,13.535-2.583,18.7-7.746l115.904-115.901c4.959-4.959,7.746-11.686,7.746-18.699
		C597.999,410.205,595.212,403.479,590.253,398.519z"/>
</g>
<g>
</g>
<g>
</g>
<g>
</g>
<g>
</g>
<g>
</g>
<g>
</g>
<g>
</g>
<g>
</g>
<g>
</g>
<g>
</g>
<g>
</g>
<g>
</g>
<g>
</g>
<g>
</g>
<g>
</g>
</svg>
