<svg width="24" height="28" viewBox="0 0 24 28 " xmlns="http://www.w3.org/2000/svg" style="fill: #cccccc">

 <g>
  <title>Layer 1</title>
  <g transform="translate(-1.701 0)" id="imagebot_2">
   <path id="imagebot_3" d="M 13.777 0 C 7.108 0 1.701 5.407 1.701 12.076 C 1.701 15.526 3.155 18.629 5.474 20.828 L 5.07 27.555 L 10.806 23.768 C 11.758 24.009 12.75 24.151 13.777 24.151 C 20.447 24.151 25.853 18.745 25.853 12.075 C 25.854 5.407 20.447 0 13.777 0 Z M 9.151 10.694 L 9.151 13.117 L 6.541 13.117 L 6.541 11.108 C 6.541 10.368 6.695 9.784 7.003 9.356 C 7.312 8.928 7.839 8.55 8.587 8.222 L 9.151 9.29 C 8.691 9.506 8.373 9.721 8.197 9.935 C 8.021 10.149 7.923 10.402 7.903 10.694 L 9.151 10.694 Z M 13.154 10.694 L 13.154 13.117 L 10.544 13.117 L 10.544 11.108 C 10.544 10.368 10.698 9.784 11.006 9.356 C 11.314 8.928 11.842 8.55 12.59 8.222 L 13.154 9.29 C 12.694 9.506 12.376 9.721 12.2 9.935 C 12.024 10.149 11.926 10.402 11.906 10.694 L 13.154 10.694 Z M 17.01 12.68 C 17.01 13.42 16.857 14.004 16.549 14.432 C 16.24 14.86 15.713 15.239 14.965 15.567 L 14.4 14.498 C 14.86 14.281 15.177 14.066 15.354 13.853 C 15.53 13.638 15.628 13.385 15.648 13.093 L 14.4 13.093 L 14.4 10.67 L 17.009 10.67 L 17.009 12.68 L 17.01 12.68 Z M 21.014 12.68 C 21.014 13.42 20.86 14.004 20.551 14.432 C 20.243 14.86 19.715 15.239 18.967 15.567 L 18.404 14.499 C 18.864 14.282 19.182 14.067 19.358 13.854 C 19.534 13.639 19.631 13.386 19.652 13.094 L 18.403 13.094 L 18.403 10.67 L 21.012 10.67 L 21.012 12.68 L 21.014 12.68 Z"/>
  </g>
 </g>
 <g>
  <title>Layer 2</title>
  <g id="imagebot_4"/>
 </g>
 <g>
  <title>Layer 3</title>
  <g id="imagebot_5"/>
 </g>
 <g>
  <title>Layer 4</title>
  <g id="imagebot_6"/>
 </g>
 <g>
  <title>Layer 5</title>
  <g id="imagebot_7"/>
 </g>
 <g>
  <title>Layer 6</title>
  <g id="imagebot_8"/>
 </g>
 <g>
  <title>Layer 7</title>
  <g id="imagebot_9"/>
 </g>
 <g>
  <title>Layer 8</title>
  <g id="imagebot_10"/>
 </g>
 <g>
  <title>Layer 9</title>
  <g id="imagebot_11"/>
 </g>
 <g>
  <title>Layer 10</title>
  <g id="imagebot_12"/>
 </g>
 <g>
  <title>Layer 11</title>
  <g id="imagebot_13"/>
 </g>
 <g>
  <title>Layer 12</title>
  <g id="imagebot_14"/>
 </g>
 <g>
  <title>Layer 13</title>
  <g id="imagebot_15"/>
 </g>
 <g>
  <title>Layer 14</title>
  <g id="imagebot_16"/>
 </g>
 <g>
  <title>Layer 15</title>
  <g id="imagebot_17"/>
 </g>
 <g>
  <title>Layer 16</title>
  <g id="imagebot_18"/>
 </g>
</svg>