<svg width="313" height="396" xmlns="http://www.w3.org/2000/svg" viewBox="0 0 313 396" >

 <g>
  <title>Layer 1</title>
  <g transform="translate(-39.626 0)" id="imagebot_3">
   <g id="imagebot_4">
    <g id="imagebot_2">
     <path id="imagebot_5" fill="#cccccc" d="M334.86,69.735C324.808,69.735 316.658,77.884 316.658,87.937L316.658,167.271C316.658,171.636 312.735,175.177 307.894,175.177C303.052,175.177 299.129,171.636 299.129,167.271L299.129,54.766C299.114,42.695 289.327,32.915 277.259,32.915C265.176,32.915 255.384,42.708 255.384,54.788C255.384,54.788 255.444,167.204 255.384,167.231L255.384,167.27C255.384,171.635 251.686,175.176 247.119,175.176C242.556,175.176 238.854,171.635 238.854,167.27L238.854,23.688C238.843,10.604 228.234,0 215.149,0C202.052,0 191.438,10.614 191.438,23.711C191.438,23.711 191.414,166.091 191.414,167.742C191.168,171.888 187.738,175.178 183.53,175.178C179.163,175.178 175.623,171.637 175.623,167.272L175.623,44.415C175.623,31.319 165.009,20.705 151.915,20.705C138.819,20.705 128.204,31.319 128.204,44.415C127.985,216.209 127.986,216.209 127.97,230.434C127.97,235.803 128.074,247.339 125.486,249.27C123.337,250.874 120.474,248.881 117.009,244.204C109.146,233.587 97.793,216.723 89.525,205.452C81.687,194.766 69.307,183.164 55.254,190.85C41.89,198.161 39.626,216.893 48.663,229.163C48.663,229.163 107.211,315.08 127.219,344.951C138.931,362.436 142.073,367.977 146.111,373.722C161.499,395.608 170.086,396.292 194.902,396.292C221.673,396.292 297.738,396.292 297.738,396.292C353.061,396.292 353.061,330.625 353.061,302.599L353.061,97.943C353.061,77.884 344.913,69.735 334.86,69.735z"/>
    </g>
   </g>
  </g>
 </g>
 <g>
  <title>Layer 2</title>
  <g id="imagebot_6"/>
 </g>
 <g>
  <title>Layer 3</title>
  <g id="imagebot_7"/>
 </g>
 <g>
  <title>Layer 4</title>
  <g id="imagebot_8"/>
 </g>
 <g>
  <title>Layer 5</title>
  <g id="imagebot_9"/>
 </g>
 <g>
  <title>Layer 6</title>
  <g id="imagebot_10"/>
 </g>
 <g>
  <title>Layer 7</title>
  <g id="imagebot_11"/>
 </g>
 <g>
  <title>Layer 8</title>
  <g id="imagebot_12"/>
 </g>
 <g>
  <title>Layer 9</title>
  <g id="imagebot_13"/>
 </g>
 <g>
  <title>Layer 10</title>
  <g id="imagebot_14"/>
 </g>
 <g>
  <title>Layer 11</title>
  <g id="imagebot_15"/>
 </g>
 <g>
  <title>Layer 12</title>
  <g id="imagebot_16"/>
 </g>
 <g>
  <title>Layer 13</title>
  <g id="imagebot_17"/>
 </g>
 <g>
  <title>Layer 14</title>
  <g id="imagebot_18"/>
 </g>
 <g>
  <title>Layer 15</title>
  <g id="imagebot_19"/>
 </g>
 <g>
  <title>Layer 16</title>
  <g id="imagebot_20"/>
 </g>
</svg>