<?xml version="1.0" encoding="iso-8859-1"?>
<!-- Generator: Adobe Illustrator 16.0.0, SVG Export Plug-In . SVG Version: 6.00 Build 0)  -->
<!DOCTYPE svg PUBLIC "-//W3C//DTD SVG 1.1//EN" "http://www.w3.org/Graphics/SVG/1.1/DTD/svg11.dtd">
<svg version="1.1" id="Capa_1" xmlns="http://www.w3.org/2000/svg" xmlns:xlink="http://www.w3.org/1999/xlink" x="0px" y="0px"
	 width="368.513px" height="368.514px" viewBox="0 0 368.513 368.514" style="enable-background:new 0 0 368.513 368.514; fill: #cccccc;"
	 xml:space="preserve">
<g>
	<path d="M66.239,368.502V0h236.036v25.628H155.464c-7.963,0-14.424,6.464-14.424,14.427s6.461,14.427,14.424,14.427h146.805v28.832
		H198.873c-7.965,0-14.414,6.461-14.414,14.423s6.449,14.415,14.414,14.415h103.396v28.844H198.873
		c-7.965,0-14.414,6.449-14.414,14.412c0,7.965,6.449,14.426,14.414,14.426h103.396v28.829H198.873
		c-7.965,0-14.414,6.468-14.414,14.43s6.449,14.424,14.414,14.424h103.396v19.215H198.873c-7.965,0-14.414,6.468-14.414,14.43
		s6.449,14.424,14.414,14.424h103.396v38.454H155.464c-7.963,0-14.424,6.449-14.424,14.412c0,7.962,6.461,14.424,14.424,14.424
		h146.805v25.64H66.239V368.502z"/>
</g>
<g>
</g>
<g>
</g>
<g>
</g>
<g>
</g>
<g>
</g>
<g>
</g>
<g>
</g>
<g>
</g>
<g>
</g>
<g>
</g>
<g>
</g>
<g>
</g>
<g>
</g>
<g>
</g>
<g>
</g>
</svg>
