<?xml version="1.0" encoding="UTF-8" standalone="no"?>
<svg
   xmlns:dc="http://purl.org/dc/elements/1.1/"
   xmlns:cc="http://creativecommons.org/ns#"
   xmlns:rdf="http://www.w3.org/1999/02/22-rdf-syntax-ns#"
   xmlns:svg="http://www.w3.org/2000/svg"
   xmlns="http://www.w3.org/2000/svg"
   xmlns:sodipodi="http://sodipodi.sourceforge.net/DTD/sodipodi-0.dtd"
   xmlns:inkscape="http://www.inkscape.org/namespaces/inkscape"
   enable-background="new 0 0 512 512"
   height="512px"
   id="Layer_1"
   version="1.1"
   viewBox="0 0 512 512"
   width="512px"
   xml:space="preserve"
   inkscape:version="0.91 r13725"
   sodipodi:docname="message.svg"><metadata
     id="metadata9"><rdf:RDF><cc:Work
         rdf:about=""><dc:format>image/svg+xml</dc:format><dc:type
           rdf:resource="http://purl.org/dc/dcmitype/StillImage" /></cc:Work></rdf:RDF></metadata><defs
     id="defs7" /><sodipodi:namedview
     pagecolor="#ffffff"
     bordercolor="#666666"
     borderopacity="1"
     objecttolerance="10"
     gridtolerance="10"
     guidetolerance="10"
     inkscape:pageopacity="0"
     inkscape:pageshadow="2"
     inkscape:window-width="1066"
     inkscape:window-height="599"
     id="namedview5"
     showgrid="false"
     inkscape:zoom="0.921875"
     inkscape:cx="149.98911"
     inkscape:cy="340.97598"
     inkscape:window-x="0"
     inkscape:window-y="0"
     inkscape:window-maximized="0"
     inkscape:current-layer="Layer_1" /><path
     d="M484.748,96.359H27.439h-3.966h-9.625h-6.63v318.585H505V96.359h-17.218H484.748z M464.837,116.271  L272.529,308.578c-8.769,8.769-24.073,8.769-32.842,0L47.35,116.271H464.837z M27.128,124.203l129.287,129.268L27.128,382.759  V124.203z M43.014,395.029l127.489-127.47l55.106,55.097c8.138,8.148,18.978,12.64,30.499,12.64c11.521,0,22.361-4.492,30.499-12.64  l55.106-55.106l127.479,127.479H43.014z M485.089,382.769L355.801,253.472l129.287-129.297V382.769z"
     fill="#37404D"
     id="path3"
     style="fill:#b1c7d5;fill-opacity:1" /></svg>