<?xml version="1.0" encoding="iso-8859-1"?>
<!-- Generator: Adobe Illustrator 16.0.0, SVG Export Plug-In . SVG Version: 6.00 Build 0)  -->
<!DOCTYPE svg PUBLIC "-//W3C//DTD SVG 1.1//EN" "http://www.w3.org/Graphics/SVG/1.1/DTD/svg11.dtd">
<svg version="1.1" id="Capa_1" xmlns="http://www.w3.org/2000/svg" xmlns:xlink="http://www.w3.org/1999/xlink" x="0px" y="0px"
	 width="533.333px" height="533.333px" viewBox="0 0 533.333 533.333" style="enable-background:new 0 0 533.333 533.333; fill:#ffffff"
	 xml:space="preserve">
<g>
	<path d="M266.667,533.333c147.275,0,266.667-119.391,266.667-266.666C533.333,119.391,413.942,0,266.667,0
		C119.391,0,0,119.391,0,266.667C0,413.942,119.391,533.333,266.667,533.333z M266.667,50c119.661,0,216.667,97.005,216.667,216.667
		c0,119.661-97.006,216.666-216.667,216.666C147.005,483.333,50,386.328,50,266.667C50,147.005,147.005,50,266.667,50z M366.667,350
		L250,266.667l116.667-83.333V350z M233.333,350l-116.667-83.333l116.667-83.333V350z"/>
</g>
<g>
</g>
<g>
</g>
<g>
</g>
<g>
</g>
<g>
</g>
<g>
</g>
<g>
</g>
<g>
</g>
<g>
</g>
<g>
</g>
<g>
</g>
<g>
</g>
<g>
</g>
<g>
</g>
<g>
</g>
</svg>
